<?xml version="1.0" encoding="iso-8859-1"?>
<!-- Uploaded to: SVG Repo, www.svgrepo.com, Generator: SVG Repo Mixer Tools -->
<svg height="800px" width="800px" version="1.1" id="Layer_1" xmlns="http://www.w3.org/2000/svg" xmlns:xlink="http://www.w3.org/1999/xlink" 
	 viewBox="0 0 491.52 491.52" xml:space="preserve">
<path style="fill:#E56353;" d="M77.57,143.625c-32.945,0-59.383-28.409-56.102-62.014c2.858-29.288,29.189-50.743,58.615-50.743
	h400.845c5.85,0,10.592-4.742,10.592-10.591l0,0c0-5.851-4.742-10.592-10.592-10.592H80.817c-42.472,0-79.507,32.728-80.781,75.18
	c-1.318,43.927,33.9,79.95,77.528,79.95h403.364c5.85,0,10.592-4.742,10.592-10.591v-0.006c0-5.85-4.742-10.591-10.592-10.591H77.57
	z"/>
<path style="fill:#EBF0F3;" d="M21.468,81.61c-3.282,33.606,23.157,62.015,56.102,62.015h401.348
	c-17.493-37.587-17.493-75.172,0-112.758H80.084C50.655,30.867,24.326,52.322,21.468,81.61z"/>
<g>
	<path style="fill:#E1E6E9;" d="M56.077,56.587h413.719c0.377-1.489,0.869-2.979,1.3-4.468H56.077V56.587z"/>
	<path style="fill:#E1E6E9;" d="M56.077,73.03h410.561c0.177-1.491,0.552-2.98,0.781-4.468H56.077V73.03z"/>
	<path style="fill:#E1E6E9;" d="M56.077,89.48h409.85c-0.029-1.49-0.029-2.979,0-4.468H56.077V89.48z"/>
	<path style="fill:#E1E6E9;" d="M56.077,105.932h411.342c-0.229-1.49-0.604-2.981-0.781-4.469H56.077V105.932z"/>
	<path style="fill:#E1E6E9;" d="M56.077,122.373h415.019c-0.432-1.49-0.923-2.98-1.3-4.468H56.077V122.373z"/>
</g>
<path style="fill:#27A2DB;" d="M413.95,302.136c32.946,0,59.383-28.408,56.103-62.014c-2.858-29.288-29.189-50.744-58.616-50.744
	H10.591C4.742,189.378,0,184.636,0,178.787l0,0c0-5.85,4.742-10.592,10.591-10.592h400.112c42.472,0,79.507,32.728,80.781,75.18
	c1.317,43.928-33.9,79.951-77.529,79.951H10.591C4.742,323.326,0,318.583,0,312.733v-0.006c0-5.85,4.742-10.591,10.591-10.591
	H413.95z"/>
<path style="fill:#EBF0F3;" d="M470.052,240.122c3.282,33.605-23.157,62.014-56.102,62.014H12.602
	c17.493-37.587,17.493-75.172,0-112.758h398.834C440.865,189.378,467.194,210.833,470.052,240.122z"/>
<g>
	<path style="fill:#E1E6E9;" d="M435.443,215.098H21.724c-0.377-1.49-0.869-2.979-1.3-4.469h415.019V215.098z"/>
	<path style="fill:#E1E6E9;" d="M435.443,231.54H24.882c-0.177-1.491-0.552-2.98-0.781-4.468h411.342V231.54z"/>
	<path style="fill:#E1E6E9;" d="M435.443,247.992H25.593c0.028-1.491,0.028-2.98,0-4.469h409.85V247.992z"/>
	<path style="fill:#E1E6E9;" d="M435.443,264.442H24.101c0.229-1.49,0.604-2.981,0.781-4.468h410.561V264.442z"/>
	<path style="fill:#E1E6E9;" d="M435.443,280.885H20.424c0.432-1.491,0.923-2.981,1.3-4.469h413.718V280.885z"/>
</g>
<path style="fill:#44C4A1;" d="M77.57,460.646c-32.945,0-59.383-28.408-56.102-62.014c2.858-29.288,29.189-50.744,58.615-50.744
	h400.845c5.85,0,10.592-4.742,10.592-10.591l0,0c0-5.85-4.742-10.591-10.592-10.591H80.817c-42.472,0-79.507,32.728-80.781,75.18
	c-1.318,43.928,33.9,79.951,77.528,79.951h403.364c5.85,0,10.592-4.742,10.592-10.592v-0.006c0-5.849-4.742-10.591-10.592-10.591
	H77.57z"/>
<path style="fill:#EBF0F3;" d="M21.468,398.633c-3.282,33.605,23.157,62.014,56.102,62.014h401.348
	c-17.493-37.586-17.493-75.171,0-112.758H80.084C50.655,347.889,24.326,369.344,21.468,398.633z"/>
<g>
	<path style="fill:#E1E6E9;" d="M56.077,373.61h413.719c0.377-1.491,0.869-2.98,1.3-4.468H56.077V373.61z"/>
	<path style="fill:#E1E6E9;" d="M56.077,390.052h410.561c0.177-1.491,0.552-2.981,0.781-4.469H56.077V390.052z"/>
	<path style="fill:#E1E6E9;" d="M56.077,406.502h409.85c-0.029-1.49-0.029-2.98,0-4.468H56.077V406.502z"/>
	<path style="fill:#E1E6E9;" d="M56.077,422.953h411.342c-0.229-1.49-0.604-2.981-0.781-4.468H56.077V422.953z"/>
	<path style="fill:#E1E6E9;" d="M56.077,439.396h415.019c-0.432-1.491-0.923-2.981-1.3-4.468H56.077V439.396z"/>
</g>
</svg>